<?xml version="1.0" encoding="UTF-8" ?>
<svg version="1.1" width="320" height="180" xmlns="http://www.w3.org/2000/svg" shape-rendering="crispEdges">
<rect x="75" y="0" width="1" height="1" fill="#44199C" />
<rect x="29" y="1" width="1" height="1" fill="#2A1180" />
<rect x="95" y="1" width="1" height="1" fill="#44199C" />
<rect x="130" y="1" width="1" height="1" fill="#C67FDB" />
<rect x="187" y="1" width="1" height="1" fill="#2A1180" />
<rect x="229" y="1" width="1" height="1" fill="#2A1180" />
<rect x="250" y="1" width="1" height="1" fill="#44199C" />
<rect x="63" y="2" width="1" height="1" fill="#2A1180" />
<rect x="168" y="2" width="1" height="1" fill="#44199C" />
<rect x="196" y="2" width="1" height="1" fill="#C67FDB" />
<rect x="260" y="2" width="1" height="1" fill="#44199C" />
<rect x="272" y="2" width="1" height="1" fill="#C67FDB" />
<rect x="310" y="2" width="1" height="1" fill="#EACBF2" />
<rect x="19" y="3" width="1" height="1" fill="#781FB8" />
<rect x="45" y="3" width="1" height="1" fill="#781FB8" />
<rect x="112" y="3" width="1" height="1" fill="#C67FDB" />
<rect x="120" y="3" width="1" height="1" fill="#EACBF2" />
<rect x="176" y="3" width="1" height="1" fill="#781FB8" />
<rect x="203" y="3" width="1" height="1" fill="#2A1180" />
<rect x="305" y="3" width="1" height="1" fill="#44199C" />
<rect x="315" y="3" width="1" height="1" fill="#2A1180" />
<rect x="129" y="4" width="1" height="1" fill="#44199C" />
<rect x="215" y="4" width="1" height="1" fill="#44199C" />
<rect x="220" y="4" width="1" height="1" fill="#EACBF2" />
<rect x="298" y="5" width="1" height="1" fill="#2A1180" />
<rect x="6" y="6" width="1" height="1" fill="#C67FDB" />
<rect x="103" y="6" width="1" height="1" fill="#44199C" />
<rect x="229" y="6" width="1" height="1" fill="#44199C" />
<rect x="253" y="6" width="1" height="1" fill="#2A1180" />
<rect x="275" y="6" width="1" height="1" fill="#44199C" />
<rect x="146" y="7" width="1" height="1" fill="#EACBF2" />
<rect x="239" y="7" width="1" height="1" fill="#C67FDB" />
<rect x="311" y="7" width="1" height="1" fill="#781FB8" />
<rect x="52" y="8" width="1" height="1" fill="#44199C" />
<rect x="67" y="8" width="1" height="1" fill="#EACBF2" />
<rect x="192" y="8" width="1" height="1" fill="#44199C" />
<rect x="319" y="8" width="1" height="1" fill="#44199C" />
<rect x="244" y="9" width="1" height="1" fill="#44199C" />
<rect x="10" y="10" width="1" height="1" fill="#44199C" />
<rect x="158" y="10" width="1" height="1" fill="#44199C" />
<rect x="178" y="10" width="1" height="1" fill="#2A1180" />
<rect x="184" y="10" width="1" height="1" fill="#EACBF2" />
<rect x="111" y="11" width="1" height="1" fill="#2A1180" />
<rect x="140" y="11" width="1" height="1" fill="#C67FDB" />
<rect x="61" y="12" width="1" height="1" fill="#781FB8" />
<rect x="149" y="12" width="1" height="1" fill="#44199C" />
<rect x="270" y="12" width="1" height="1" fill="#44199C" />
<rect x="287" y="12" width="1" height="1" fill="#EACBF2" />
<rect x="291" y="12" width="1" height="1" fill="#2A1180" />
<rect x="32" y="13" width="1" height="1" fill="#781FB8" />
<rect x="135" y="13" width="1" height="1" fill="#44199C" />
<rect x="169" y="13" width="1" height="1" fill="#44199C" />
<rect x="202" y="13" width="1" height="1" fill="#781FB8" />
<rect x="251" y="13" width="1" height="1" fill="#781FB8" />
<rect x="297" y="13" width="1" height="1" fill="#C67FDB" />
<rect x="315" y="13" width="1" height="1" fill="#2A1180" />
<rect x="26" y="14" width="1" height="1" fill="#EACBF2" />
<rect x="97" y="14" width="1" height="1" fill="#44199C" />
<rect x="238" y="14" width="1" height="1" fill="#2A1180" />
<rect x="54" y="15" width="1" height="1" fill="#2A1180" />
<rect x="230" y="15" width="1" height="1" fill="#44199C" />
<rect x="293" y="15" width="1" height="1" fill="#781FB8" />
<rect x="309" y="15" width="1" height="1" fill="#44199C" />
<rect x="317" y="16" width="1" height="1" fill="#C67FDB" />
<rect x="13" y="18" width="1" height="1" fill="#44199C" />
<rect x="35" y="18" width="1" height="1" fill="#44199C" />
<rect x="107" y="18" width="1" height="1" fill="#EACBF2" />
<rect x="285" y="18" width="1" height="1" fill="#44199C" />
<rect x="301" y="18" width="1" height="1" fill="#2A1180" />
<rect x="19" y="19" width="1" height="1" fill="#2A1180" />
<rect x="71" y="19" width="1" height="1" fill="#44199C" />
<rect x="180" y="19" width="1" height="1" fill="#C67FDB" />
<rect x="192" y="19" width="1" height="1" fill="#2A1180" />
<rect x="203" y="19" width="1" height="1" fill="#44199C" />
<rect x="83" y="20" width="1" height="1" fill="#44199C" />
<rect x="90" y="20" width="1" height="1" fill="#781FB8" />
<rect x="54" y="21" width="1" height="1" fill="#44199C" />
<rect x="66" y="21" width="1" height="1" fill="#C67FDB" />
<rect x="97" y="21" width="1" height="1" fill="#C67FDB" />
<rect x="314" y="21" width="1" height="1" fill="#2A1180" />
<rect x="229" y="22" width="1" height="1" fill="#C67FDB" />
<rect x="239" y="22" width="1" height="1" fill="#781FB8" />
<rect x="319" y="22" width="1" height="1" fill="#44199C" />
<rect x="20" y="23" width="1" height="1" fill="#C67FDB" />
<rect x="29" y="23" width="1" height="1" fill="#2A1180" />
<rect x="166" y="23" width="1" height="1" fill="#2A1180" />
<rect x="276" y="23" width="1" height="1" fill="#781FB8" />
<rect x="106" y="24" width="1" height="1" fill="#2A1180" />
<rect x="199" y="24" width="1" height="1" fill="#EACBF2" />
<rect x="151" y="25" width="1" height="1" fill="#C67FDB" />
<rect x="10" y="26" width="1" height="1" fill="#781FB8" />
<rect x="63" y="26" width="1" height="1" fill="#2A1180" />
<rect x="91" y="27" width="1" height="1" fill="#C67FDB" />
<rect x="305" y="27" width="1" height="1" fill="#44199C" />
<rect x="18" y="28" width="1" height="1" fill="#44199C" />
<rect x="84" y="28" width="1" height="1" fill="#2A1180" />
<rect x="122" y="28" width="1" height="1" fill="#C67FDB" />
<rect x="208" y="28" width="1" height="1" fill="#44199C" />
<rect x="260" y="28" width="1" height="1" fill="#44199C" />
<rect x="315" y="28" width="1" height="1" fill="#781FB8" />
<rect x="5" y="29" width="1" height="1" fill="#781FB8" />
<rect x="40" y="29" width="1" height="1" fill="#EACBF2" />
<rect x="139" y="29" width="1" height="1" fill="#44199C" />
<rect x="35" y="30" width="1" height="1" fill="#C67FDB" />
<rect x="110" y="30" width="1" height="1" fill="#2A1180" />
<rect x="50" y="31" width="1" height="1" fill="#44199C" />
<rect x="60" y="31" width="1" height="1" fill="#C67FDB" />
<rect x="79" y="31" width="1" height="1" fill="#781FB8" />
<rect x="95" y="31" width="1" height="1" fill="#44199C" />
<rect x="192" y="31" width="1" height="1" fill="#44199C" />
<rect x="230" y="31" width="1" height="1" fill="#2A1180" />
<rect x="269" y="31" width="1" height="1" fill="#44199C" />
<rect x="281" y="31" width="1" height="1" fill="#EACBF2" />
<rect x="153" y="32" width="1" height="1" fill="#44199C" />
<rect x="163" y="32" width="1" height="1" fill="#781FB8" />
<rect x="197" y="32" width="1" height="1" fill="#2A1180" />
<rect x="305" y="32" width="1" height="1" fill="#44199C" />
<rect x="318" y="32" width="1" height="1" fill="#44199C" />
<rect x="0" y="33" width="1" height="1" fill="#2A1180" />
<rect x="26" y="33" width="1" height="1" fill="#44199C" />
<rect x="312" y="33" width="1" height="1" fill="#781FB8" />
<rect x="68" y="34" width="1" height="1" fill="#2A1180" />
<rect x="143" y="34" width="1" height="1" fill="#2A1180" />
<rect x="214" y="34" width="1" height="1" fill="#2A1180" />
<rect x="244" y="34" width="1" height="1" fill="#EACBF2" />
<rect x="254" y="34" width="1" height="1" fill="#2A1180" />
<rect x="171" y="35" width="1" height="1" fill="#EACBF2" />
<rect x="275" y="35" width="1" height="1" fill="#44199C" />
<rect x="125" y="36" width="1" height="1" fill="#2A1180" />
<rect x="204" y="36" width="1" height="1" fill="#781FB8" />
<rect x="264" y="36" width="1" height="1" fill="#EACBF2" />
<rect x="53" y="37" width="1" height="1" fill="#2A1180" />
<rect x="57" y="37" width="1" height="1" fill="#781FB8" />
<rect x="88" y="37" width="1" height="1" fill="#2A1180" />
<rect x="34" y="38" width="1" height="1" fill="#2A1180" />
<rect x="112" y="38" width="1" height="1" fill="#44199C" />
<rect x="130" y="38" width="1" height="1" fill="#44199C" />
<rect x="183" y="38" width="1" height="1" fill="#781FB8" />
<rect x="45" y="39" width="1" height="1" fill="#EACBF2" />
<rect x="191" y="39" width="1" height="1" fill="#C67FDB" />
<rect x="64" y="40" width="1" height="1" fill="#EACBF2" />
<rect x="93" y="40" width="1" height="1" fill="#EACBF2" />
<rect x="224" y="40" width="1" height="1" fill="#44199C" />
<rect x="239" y="40" width="1" height="1" fill="#2A1180" />
<rect x="271" y="40" width="1" height="1" fill="#EACBF2" />
<rect x="307" y="40" width="1" height="1" fill="#781FB8" />
<rect x="20" y="41" width="1" height="1" fill="#44199C" />
<rect x="40" y="41" width="1" height="1" fill="#781FB8" />
<rect x="83" y="41" width="1" height="1" fill="#781FB8" />
<rect x="250" y="41" width="1" height="1" fill="#C67FDB" />
<rect x="314" y="41" width="1" height="1" fill="#2A1180" />
<rect x="318" y="41" width="1" height="1" fill="#2A1180" />
<rect x="165" y="42" width="1" height="1" fill="#44199C" />
<rect x="234" y="42" width="1" height="1" fill="#C67FDB" />
<rect x="286" y="42" width="1" height="1" fill="#2A1180" />
<rect x="1" y="43" width="1" height="1" fill="#EACBF2" />
<rect x="134" y="43" width="1" height="1" fill="#EACBF2" />
<rect x="152" y="43" width="1" height="1" fill="#2A1180" />
<rect x="195" y="43" width="1" height="1" fill="#44199C" />
<rect x="55" y="44" width="1" height="1" fill="#781FB8" />
<rect x="30" y="45" width="1" height="1" fill="#EACBF2" />
<rect x="178" y="45" width="1" height="1" fill="#2A1180" />
<rect x="49" y="46" width="1" height="1" fill="#44199C" />
<rect x="64" y="46" width="1" height="1" fill="#44199C" />
<rect x="69" y="46" width="1" height="1" fill="#781FB8" />
<rect x="217" y="46" width="1" height="1" fill="#781FB8" />
<rect x="282" y="46" width="1" height="1" fill="#2A1180" />
<rect x="301" y="46" width="1" height="1" fill="#EACBF2" />
<rect x="6" y="47" width="1" height="1" fill="#44199C" />
<rect x="13" y="47" width="1" height="1" fill="#781FB8" />
<rect x="90" y="47" width="1" height="1" fill="#44199C" />
<rect x="108" y="47" width="1" height="1" fill="#781FB8" />
<rect x="147" y="47" width="1" height="1" fill="#44199C" />
<rect x="211" y="47" width="1" height="1" fill="#EACBF2" />
<rect x="271" y="47" width="1" height="1" fill="#781FB8" />
<rect x="2" y="48" width="1" height="1" fill="#2A1180" />
<rect x="20" y="48" width="1" height="1" fill="#C67FDB" />
<rect x="120" y="48" width="1" height="1" fill="#C67FDB" />
<rect x="296" y="48" width="1" height="1" fill="#44199C" />
<rect x="75" y="49" width="1" height="1" fill="#C67FDB" />
<rect x="306" y="49" width="1" height="1" fill="#44199C" />
<rect x="316" y="49" width="1" height="1" fill="#781FB8" />
<rect x="80" y="50" width="1" height="1" fill="#2A1180" />
<rect x="241" y="50" width="1" height="1" fill="#44199C" />
<rect x="276" y="50" width="1" height="1" fill="#2A1180" />
<rect x="29" y="51" width="1" height="1" fill="#2A1180" />
<rect x="46" y="51" width="1" height="1" fill="#C67FDB" />
<rect x="128" y="51" width="1" height="1" fill="#2A1180" />
<rect x="70" y="52" width="1" height="1" fill="#2A1180" />
<rect x="176" y="52" width="1" height="1" fill="#44199C" />
<rect x="204" y="52" width="1" height="1" fill="#2A1180" />
<rect x="145" y="53" width="1" height="1" fill="#C67FDB" />
<rect x="42" y="54" width="1" height="1" fill="#2A1180" />
<rect x="77" y="54" width="1" height="1" fill="#EACBF2" />
<rect x="87" y="54" width="1" height="1" fill="#781FB8" />
<rect x="105" y="54" width="1" height="1" fill="#EACBF2" />
<rect x="300" y="55" width="1" height="1" fill="#44199C" />
<rect x="214" y="56" width="1" height="1" fill="#2A1180" />
<rect x="290" y="56" width="1" height="1" fill="#EACBF2" />
<rect x="5" y="57" width="1" height="1" fill="#C67FDB" />
<rect x="96" y="57" width="1" height="1" fill="#2A1180" />
<rect x="154" y="57" width="1" height="1" fill="#2A1180" />
<rect x="50" y="58" width="1" height="1" fill="#44199C" />
<rect x="92" y="58" width="1" height="1" fill="#C67FDB" />
<rect x="162" y="58" width="1" height="1" fill="#C67FDB" />
<rect x="240" y="58" width="1" height="1" fill="#781FB8" />
<rect x="37" y="59" width="1" height="1" fill="#781FB8" />
<rect x="87" y="59" width="1" height="1" fill="#44199C" />
<rect x="195" y="59" width="1" height="1" fill="#781FB8" />
<rect x="318" y="59" width="1" height="1" fill="#44199C" />
<rect x="11" y="60" width="1" height="1" fill="#44199C" />
<rect x="122" y="60" width="1" height="1" fill="#44199C" />
<rect x="183" y="60" width="1" height="1" fill="#44199C" />
<rect x="276" y="60" width="1" height="1" fill="#44199C" />
<rect x="285" y="60" width="1" height="1" fill="#EACBF2" />
<rect x="305" y="60" width="1" height="1" fill="#2A1180" />
<rect x="6" y="61" width="1" height="1" fill="#781FB8" />
<rect x="128" y="61" width="1" height="1" fill="#C67FDB" />
<rect x="203" y="61" width="1" height="1" fill="#44199C" />
<rect x="115" y="62" width="1" height="1" fill="#2A1180" />
<rect x="171" y="62" width="1" height="1" fill="#2A1180" />
<rect x="21" y="63" width="1" height="1" fill="#EACBF2" />
<rect x="153" y="63" width="1" height="1" fill="#781FB8" />
<rect x="220" y="63" width="1" height="1" fill="#C67FDB" />
<rect x="250" y="63" width="1" height="1" fill="#2A1180" />
<rect x="58" y="64" width="1" height="1" fill="#781FB8" />
<rect x="97" y="64" width="1" height="1" fill="#44199C" />
<rect x="267" y="64" width="1" height="1" fill="#44199C" />
<rect x="17" y="65" width="1" height="1" fill="#C67FDB" />
<rect x="70" y="65" width="1" height="1" fill="#C67FDB" />
<rect x="234" y="65" width="1" height="1" fill="#2A1180" />
<rect x="7" y="66" width="1" height="1" fill="#2A1180" />
<rect x="211" y="66" width="1" height="1" fill="#44199C" />
<rect x="224" y="67" width="1" height="1" fill="#781FB8" />
<rect x="78" y="68" width="1" height="1" fill="#2A1180" />
<rect x="124" y="68" width="1" height="1" fill="#44199C" />
<rect x="160" y="68" width="1" height="1" fill="#44199C" />
<rect x="175" y="68" width="1" height="1" fill="#EACBF2" />
<rect x="293" y="68" width="1" height="1" fill="#44199C" />
<rect x="309" y="68" width="1" height="1" fill="#44199C" />
<rect x="116" y="69" width="1" height="1" fill="#781FB8" />
<rect x="126" y="69" width="1" height="1" fill="#44199C" />
<rect x="95" y="70" width="1" height="1" fill="#C67FDB" />
<rect x="273" y="70" width="1" height="1" fill="#2A1180" />
<rect x="55" y="71" width="1" height="1" fill="#EACBF2" />
<rect x="219" y="71" width="1" height="1" fill="#2A1180" />
<rect x="7" y="72" width="1" height="1" fill="#44199C" />
<rect x="112" y="72" width="1" height="1" fill="#44199C" />
<rect x="169" y="72" width="1" height="1" fill="#781FB8" />
<rect x="244" y="72" width="1" height="1" fill="#2A1180" />
<rect x="265" y="73" width="1" height="1" fill="#44199C" />
<rect x="302" y="73" width="1" height="1" fill="#2A1180" />
<rect x="104" y="74" width="1" height="1" fill="#2A1180" />
<rect x="205" y="74" width="1" height="1" fill="#44199C" />
<rect x="286" y="74" width="1" height="1" fill="#2A1180" />
<rect x="307" y="74" width="1" height="1" fill="#2A1180" />
<rect x="112" y="75" width="1" height="1" fill="#C67FDB" />
<rect x="131" y="75" width="1" height="1" fill="#EACBF2" />
<rect x="162" y="75" width="1" height="1" fill="#2A1180" />
<rect x="315" y="75" width="1" height="1" fill="#C67FDB" />
<rect x="39" y="76" width="1" height="1" fill="#44199C" />
<rect x="148" y="76" width="1" height="1" fill="#44199C" />
<rect x="234" y="76" width="1" height="1" fill="#44199C" />
<rect x="252" y="76" width="1" height="1" fill="#44199C" />
<rect x="289" y="76" width="1" height="1" fill="#781FB8" />
<rect x="297" y="76" width="1" height="1" fill="#44199C" />
<rect x="21" y="77" width="1" height="1" fill="#C67FDB" />
<rect x="72" y="77" width="1" height="1" fill="#44199C" />
<rect x="133" y="77" width="1" height="1" fill="#44199C" />
<rect x="139" y="77" width="1" height="1" fill="#781FB8" />
<rect x="227" y="77" width="1" height="1" fill="#781FB8" />
<rect x="30" y="78" width="1" height="1" fill="#44199C" />
<rect x="78" y="78" width="1" height="1" fill="#C67FDB" />
<rect x="215" y="78" width="1" height="1" fill="#EACBF2" />
<rect x="16" y="79" width="1" height="1" fill="#44199C" />
<rect x="65" y="79" width="1" height="1" fill="#2A1180" />
<rect x="121" y="79" width="1" height="1" fill="#2A1180" />
<rect x="179" y="79" width="1" height="1" fill="#44199C" />
<rect x="103" y="80" width="1" height="1" fill="#781FB8" />
<rect x="191" y="80" width="1" height="1" fill="#44199C" />
<rect x="198" y="80" width="1" height="1" fill="#781FB8" />
<rect x="268" y="80" width="1" height="1" fill="#781FB8" />
<rect x="277" y="80" width="1" height="1" fill="#C67FDB" />
<rect x="306" y="80" width="1" height="1" fill="#781FB8" />
<rect x="162" y="81" width="1" height="1" fill="#44199C" />
<rect x="174" y="81" width="1" height="1" fill="#C67FDB" />
<rect x="205" y="81" width="1" height="1" fill="#C67FDB" />
<rect x="128" y="82" width="1" height="1" fill="#2A1180" />
<rect x="283" y="82" width="1" height="1" fill="#44199C" />
<rect x="303" y="82" width="1" height="1" fill="#44199C" />
<rect x="288" y="83" width="1" height="1" fill="#EACBF2" />
<rect x="214" y="84" width="1" height="1" fill="#2A1180" />
<rect x="245" y="84" width="1" height="1" fill="#44199C" />
<rect x="74" y="85" width="1" height="1" fill="#44199C" />
<rect x="110" y="85" width="1" height="1" fill="#44199C" />
<rect x="125" y="85" width="1" height="1" fill="#EACBF2" />
<rect x="259" y="85" width="1" height="1" fill="#2A1180" />
<rect x="313" y="85" width="1" height="1" fill="#44199C" />
<rect x="66" y="86" width="1" height="1" fill="#781FB8" />
<rect x="171" y="86" width="1" height="1" fill="#2A1180" />
<rect x="271" y="86" width="1" height="1" fill="#44199C" />
<rect x="141" y="87" width="1" height="1" fill="#2A1180" />
<rect x="145" y="88" width="1" height="1" fill="#C67FDB" />
<rect x="199" y="88" width="1" height="1" fill="#2A1180" />
<rect x="62" y="89" width="1" height="1" fill="#44199C" />
<rect x="119" y="89" width="1" height="1" fill="#781FB8" />
<rect x="207" y="89" width="1" height="1" fill="#44199C" />
<rect x="218" y="89" width="1" height="1" fill="#44199C" />
<rect x="131" y="90" width="1" height="1" fill="#44199C" />
<rect x="308" y="90" width="1" height="1" fill="#44199C" />
<rect x="318" y="90" width="1" height="1" fill="#781FB8" />
<rect x="32" y="91" width="1" height="1" fill="#C67FDB" />
<rect x="252" y="91" width="1" height="1" fill="#C67FDB" />
<rect x="302" y="91" width="1" height="1" fill="#EACBF2" />
<rect x="81" y="92" width="1" height="1" fill="#EACBF2" />
<rect x="112" y="92" width="1" height="1" fill="#2A1180" />
<rect x="242" y="92" width="1" height="1" fill="#2A1180" />
<rect x="260" y="92" width="1" height="1" fill="#2A1180" />
<rect x="315" y="92" width="1" height="1" fill="#2A1180" />
<rect x="98" y="93" width="1" height="1" fill="#44199C" />
<rect x="259" y="93" width="1" height="1" fill="#2A1180" />
<rect x="3" y="94" width="1" height="1" fill="#C67FDB" />
<rect x="89" y="94" width="1" height="1" fill="#781FB8" />
<rect x="191" y="94" width="1" height="1" fill="#EACBF2" />
<rect x="297" y="94" width="1" height="1" fill="#2A1180" />
<rect x="20" y="95" width="1" height="1" fill="#44199C" />
<rect x="147" y="95" width="1" height="1" fill="#44199C" />
<rect x="129" y="96" width="1" height="1" fill="#44199C" />
<rect x="218" y="96" width="1" height="1" fill="#2A1180" />
<rect x="196" y="97" width="1" height="1" fill="#44199C" />
<rect x="290" y="97" width="1" height="1" fill="#781FB8" />
<rect x="34" y="98" width="1" height="1" fill="#44199C" />
<rect x="44" y="98" width="1" height="1" fill="#781FB8" />
<rect x="112" y="98" width="1" height="1" fill="#44199C" />
<rect x="124" y="98" width="1" height="1" fill="#C67FDB" />
<rect x="175" y="98" width="1" height="1" fill="#44199C" />
<rect x="184" y="98" width="1" height="1" fill="#781FB8" />
<rect x="213" y="98" width="1" height="1" fill="#781FB8" />
<rect x="225" y="98" width="1" height="1" fill="#C67FDB" />
<rect x="315" y="98" width="1" height="1" fill="#44199C" />
<rect x="78" y="99" width="1" height="1" fill="#2A1180" />
<rect x="278" y="99" width="1" height="1" fill="#44199C" />
<rect x="24" y="100" width="1" height="1" fill="#2A1180" />
<rect x="239" y="100" width="1" height="1" fill="#44199C" />
<rect x="252" y="100" width="1" height="1" fill="#2A1180" />
<rect x="303" y="101" width="1" height="1" fill="#C67FDB" />
<rect x="307" y="101" width="1" height="1" fill="#2A1180" />
<rect x="6" y="102" width="1" height="1" fill="#2A1180" />
<rect x="147" y="102" width="1" height="1" fill="#2A1180" />
<rect x="245" y="102" width="1" height="1" fill="#C67FDB" />
<rect x="259" y="102" width="1" height="1" fill="#781FB8" />
<rect x="296" y="102" width="1" height="1" fill="#44199C" />
<rect x="121" y="103" width="1" height="1" fill="#2A1180" />
<rect x="11" y="104" width="1" height="1" fill="#44199C" />
<rect x="91" y="104" width="1" height="1" fill="#2A1180" />
<rect x="190" y="104" width="1" height="1" fill="#44199C" />
<rect x="227" y="104" width="1" height="1" fill="#44199C" />
<rect x="287" y="104" width="1" height="1" fill="#2A1180" />
<rect x="80" y="105" width="1" height="1" fill="#44199C" />
<rect x="95" y="105" width="1" height="1" fill="#C67FDB" />
<rect x="158" y="105" width="1" height="1" fill="#EACBF2" />
<rect x="205" y="105" width="1" height="1" fill="#2A1180" />
<rect x="264" y="105" width="1" height="1" fill="#C67FDB" />
<rect x="46" y="106" width="1" height="1" fill="#2A1180" />
<rect x="181" y="106" width="1" height="1" fill="#2A1180" />
<rect x="214" y="106" width="1" height="1" fill="#44199C" />
<rect x="281" y="106" width="1" height="1" fill="#44199C" />
<rect x="81" y="107" width="1" height="1" fill="#44199C" />
<rect x="168" y="107" width="1" height="1" fill="#44199C" />
<rect x="257" y="108" width="1" height="1" fill="#44199C" />
<rect x="15" y="109" width="1" height="1" fill="#EACBF2" />
<rect x="33" y="109" width="1" height="1" fill="#2A1180" />
<rect x="232" y="110" width="1" height="1" fill="#2A1180" />
<rect x="236" y="110" width="1" height="1" fill="#781FB8" />
<rect x="289" y="110" width="1" height="1" fill="#EACBF2" />
<rect x="304" y="110" width="1" height="1" fill="#44199C" />
<rect x="59" y="111" width="1" height="1" fill="#2A1180" />
<rect x="155" y="111" width="1" height="1" fill="#781FB8" />
<rect x="63" y="112" width="1" height="1" fill="#C67FDB" />
<rect x="97" y="112" width="1" height="1" fill="#44199C" />
<rect x="197" y="112" width="1" height="1" fill="#EACBF2" />
<rect x="299" y="112" width="1" height="1" fill="#2A1180" />
<rect x="28" y="113" width="1" height="1" fill="#44199C" />
<rect x="216" y="113" width="1" height="1" fill="#EACBF2" />
<rect x="221" y="113" width="1" height="1" fill="#2A1180" />
<rect x="1" y="114" width="1" height="1" fill="#C67FDB" />
<rect x="49" y="114" width="1" height="1" fill="#44199C" />
<rect x="165" y="114" width="1" height="1" fill="#C67FDB" />
<rect x="206" y="114" width="1" height="1" fill="#44199C" />
<rect x="289" y="114" width="1" height="1" fill="#44199C" />
<rect x="93" y="115" width="1" height="1" fill="#2A1180" />
<rect x="125" y="115" width="1" height="1" fill="#44199C" />
<rect x="134" y="115" width="1" height="1" fill="#781FB8" />
<rect x="181" y="115" width="1" height="1" fill="#C67FDB" />
<rect x="309" y="115" width="1" height="1" fill="#2A1180" />
<rect x="157" y="116" width="1" height="1" fill="#2A1180" />
<rect x="317" y="116" width="1" height="1" fill="#C67FDB" />
<rect x="9" y="117" width="1" height="1" fill="#2A1180" />
<rect x="136" y="117" width="1" height="1" fill="#44199C" />
<rect x="173" y="117" width="1" height="1" fill="#2A1180" />
<rect x="283" y="117" width="1" height="1" fill="#781FB8" />
<rect x="104" y="118" width="1" height="1" fill="#EACBF2" />
<rect x="151" y="118" width="1" height="1" fill="#2A1180" />
<rect x="259" y="118" width="1" height="1" fill="#44199C" />
<rect x="26" y="119" width="1" height="1" fill="#C67FDB" />
<rect x="65" y="119" width="1" height="1" fill="#44199C" />
<rect x="127" y="119" width="1" height="1" fill="#2A1180" />
<rect x="228" y="119" width="1" height="1" fill="#44199C" />
<rect x="274" y="119" width="1" height="1" fill="#EACBF2" />
<rect x="114" y="120" width="1" height="1" fill="#44199C" />
<rect x="209" y="120" width="1" height="1" fill="#C67FDB" />
<rect x="304" y="120" width="1" height="1" fill="#EACBF2" />
<rect x="284" y="121" width="1" height="1" fill="#2A1180" />
<rect x="308" y="121" width="1" height="1" fill="#781FB8" />
<rect x="61" y="122" width="1" height="1" fill="#2A1180" />
<rect x="199" y="122" width="1" height="1" fill="#44199C" />
<rect x="215" y="122" width="1" height="1" fill="#781FB8" />
<rect x="235" y="122" width="1" height="1" fill="#44199C" />
<rect x="293" y="122" width="1" height="1" fill="#44199C" />
<rect x="35" y="123" width="1" height="1" fill="#2A1180" />
<rect x="306" y="123" width="1" height="1" fill="#2A1180" />
<rect x="43" y="124" width="1" height="1" fill="#C67FDB" />
<rect x="101" y="124" width="1" height="1" fill="#781FB8" />
<rect x="177" y="124" width="1" height="1" fill="#44199C" />
<rect x="72" y="125" width="1" height="1" fill="#EACBF2" />
<rect x="143" y="125" width="1" height="1" fill="#EACBF2" />
<rect x="208" y="125" width="1" height="1" fill="#2A1180" />
<rect x="3" y="126" width="1" height="1" fill="#44199C" />
<rect x="189" y="126" width="1" height="1" fill="#2A1180" />
<rect x="315" y="126" width="1" height="1" fill="#44199C" />
<rect x="9" y="127" width="1" height="1" fill="#C67FDB" />
<rect x="82" y="127" width="1" height="1" fill="#44199C" />
<rect x="111" y="127" width="1" height="1" fill="#C67FDB" />
<rect x="152" y="127" width="1" height="1" fill="#44199C" />
<rect x="243" y="127" width="1" height="1" fill="#2A1180" />
<rect x="277" y="127" width="1" height="1" fill="#44199C" />
<rect x="127" y="128" width="1" height="1" fill="#C67FDB" />
<rect x="228" y="128" width="1" height="1" fill="#44199C" />
<rect x="289" y="128" width="1" height="1" fill="#C67FDB" />
<rect x="300" y="128" width="1" height="1" fill="#44199C" />
<rect x="34" y="129" width="1" height="1" fill="#781FB8" />
<rect x="103" y="129" width="1" height="1" fill="#2A1180" />
<rect x="286" y="129" width="1" height="1" fill="#44199C" />
<rect x="119" y="130" width="1" height="1" fill="#2A1180" />
<rect x="254" y="130" width="1" height="1" fill="#EACBF2" />
<rect x="301" y="130" width="1" height="1" fill="#2A1180" />
<rect x="69" y="131" width="1" height="1" fill="#781FB8" />
<rect x="277" y="131" width="1" height="1" fill="#2A1180" />
<rect x="264" y="132" width="1" height="1" fill="#44199C" />
<rect x="317" y="133" width="1" height="1" fill="#2A1180" />
<rect x="5" y="134" width="1" height="1" fill="#44199C" />
<rect x="41" y="134" width="1" height="1" fill="#44199C" />
<rect x="79" y="134" width="1" height="1" fill="#C67FDB" />
<rect x="186" y="134" width="1" height="1" fill="#781FB8" />
<rect x="289" y="134" width="1" height="1" fill="#2A1180" />
<rect x="294" y="134" width="1" height="1" fill="#EACBF2" />
<rect x="145" y="135" width="1" height="1" fill="#44199C" />
<rect x="155" y="135" width="1" height="1" fill="#44199C" />
<rect x="176" y="135" width="1" height="1" fill="#C67FDB" />
<rect x="241" y="135" width="1" height="1" fill="#C67FDB" />
<rect x="71" y="136" width="1" height="1" fill="#2A1180" />
<rect x="162" y="136" width="1" height="1" fill="#EACBF2" />
<rect x="233" y="136" width="1" height="1" fill="#44199C" />
<rect x="251" y="136" width="1" height="1" fill="#781FB8" />
<rect x="104" y="137" width="1" height="1" fill="#44199C" />
<rect x="123" y="137" width="1" height="1" fill="#44199C" />
<rect x="293" y="137" width="1" height="1" fill="#EACBF2" />
<rect x="86" y="138" width="1" height="1" fill="#C67FDB" />
<rect x="182" y="138" width="1" height="1" fill="#44199C" />
<rect x="227" y="138" width="1" height="1" fill="#2A1180" />
<rect x="282" y="138" width="1" height="1" fill="#44199C" />
<rect x="310" y="138" width="1" height="1" fill="#44199C" />
<rect x="95" y="139" width="1" height="1" fill="#44199C" />
<rect x="135" y="139" width="1" height="1" fill="#2A1180" />
<rect x="261" y="139" width="1" height="1" fill="#C67FDB" />
<rect x="302" y="139" width="1" height="1" fill="#44199C" />
<rect x="317" y="139" width="1" height="1" fill="#44199C" />
<rect x="81" y="140" width="1" height="1" fill="#44199C" />
<rect x="277" y="140" width="1" height="1" fill="#C67FDB" />
<rect x="12" y="141" width="1" height="1" fill="#EACBF2" />
<rect x="43" y="141" width="1" height="1" fill="#2A1180" />
<rect x="165" y="141" width="1" height="1" fill="#44199C" />
<rect x="209" y="141" width="1" height="1" fill="#2A1180" />
<rect x="253" y="141" width="1" height="1" fill="#2A1180" />
<rect x="29" y="142" width="1" height="1" fill="#44199C" />
<rect x="217" y="142" width="1" height="1" fill="#C67FDB" />
<rect x="269" y="142" width="1" height="1" fill="#2A1180" />
<rect x="20" y="143" width="1" height="1" fill="#781FB8" />
<rect x="72" y="144" width="1" height="1" fill="#44199C" />
<rect x="175" y="144" width="1" height="1" fill="#2A1180" />
<rect x="201" y="144" width="1" height="1" fill="#781FB8" />
<rect x="54" y="145" width="1" height="1" fill="#C67FDB" />
<rect x="192" y="145" width="1" height="1" fill="#EACBF2" />
<rect x="308" y="145" width="1" height="1" fill="#C67FDB" />
<rect x="313" y="145" width="1" height="1" fill="#781FB8" />
<rect x="63" y="146" width="1" height="1" fill="#44199C" />
<rect x="229" y="146" width="1" height="1" fill="#EACBF2" />
<rect x="243" y="146" width="1" height="1" fill="#781FB8" />
<rect x="43" y="147" width="1" height="1" fill="#44199C" />
<rect x="49" y="147" width="1" height="1" fill="#44199C" />
<rect x="132" y="147" width="1" height="1" fill="#781FB8" />
<rect x="193" y="147" width="1" height="1" fill="#2A1180" />
<rect x="295" y="147" width="1" height="1" fill="#44199C" />
<rect x="301" y="147" width="1" height="1" fill="#44199C" />
<rect x="9" y="148" width="1" height="1" fill="#2A1180" />
<rect x="101" y="148" width="1" height="1" fill="#44199C" />
<rect x="122" y="148" width="1" height="1" fill="#C67FDB" />
<rect x="159" y="148" width="1" height="1" fill="#44199C" />
<rect x="223" y="148" width="1" height="1" fill="#44199C" />
<rect x="108" y="149" width="1" height="1" fill="#EACBF2" />
<rect x="207" y="149" width="1" height="1" fill="#44199C" />
<rect x="273" y="149" width="1" height="1" fill="#44199C" />
<rect x="308" y="149" width="1" height="1" fill="#2A1180" />
<rect x="216" y="150" width="1" height="1" fill="#44199C" />
<rect x="128" y="151" width="1" height="1" fill="#44199C" />
<rect x="180" y="151" width="1" height="1" fill="#EACBF2" />
<rect x="285" y="151" width="1" height="1" fill="#2A1180" />
<rect x="97" y="152" width="1" height="1" fill="#C67FDB" />
<rect x="300" y="152" width="1" height="1" fill="#2A1180" />
<rect x="315" y="152" width="1" height="1" fill="#44199C" />
<rect x="237" y="153" width="1" height="1" fill="#2A1180" />
<rect x="244" y="153" width="1" height="1" fill="#C67FDB" />
<rect x="311" y="153" width="1" height="1" fill="#EACBF2" />
<rect x="37" y="154" width="1" height="1" fill="#C67FDB" />
<rect x="111" y="154" width="1" height="1" fill="#44199C" />
<rect x="187" y="154" width="1" height="1" fill="#44199C" />
<rect x="228" y="154" width="1" height="1" fill="#2A1180" />
<rect x="30" y="155" width="1" height="1" fill="#2A1180" />
<rect x="68" y="155" width="1" height="1" fill="#C67FDB" />
<rect x="303" y="155" width="1" height="1" fill="#C67FDB" />
<rect x="85" y="156" width="1" height="1" fill="#44199C" />
<rect x="143" y="156" width="1" height="1" fill="#2A1180" />
<rect x="225" y="156" width="1" height="1" fill="#C67FDB" />
<rect x="56" y="157" width="1" height="1" fill="#2A1180" />
<rect x="121" y="157" width="1" height="1" fill="#2A1180" />
<rect x="147" y="157" width="1" height="1" fill="#781FB8" />
<rect x="6" y="158" width="1" height="1" fill="#C67FDB" />
<rect x="25" y="158" width="1" height="1" fill="#781FB8" />
<rect x="41" y="158" width="1" height="1" fill="#44199C" />
<rect x="138" y="158" width="1" height="1" fill="#EACBF2" />
<rect x="186" y="158" width="1" height="1" fill="#44199C" />
<rect x="307" y="158" width="1" height="1" fill="#44199C" />
<rect x="99" y="159" width="1" height="1" fill="#44199C" />
<rect x="109" y="159" width="1" height="1" fill="#781FB8" />
<rect x="154" y="159" width="1" height="1" fill="#EACBF2" />
<rect x="201" y="159" width="1" height="1" fill="#2A1180" />
<rect x="209" y="159" width="1" height="1" fill="#2A1180" />
<rect x="282" y="159" width="1" height="1" fill="#781FB8" />
<rect x="139" y="160" width="1" height="1" fill="#2A1180" />
<rect x="177" y="160" width="1" height="1" fill="#2A1180" />
<rect x="217" y="160" width="1" height="1" fill="#44199C" />
<rect x="229" y="160" width="1" height="1" fill="#44199C" />
<rect x="251" y="160" width="1" height="1" fill="#44199C" />
<rect x="272" y="160" width="1" height="1" fill="#C67FDB" />
<rect x="14" y="161" width="1" height="1" fill="#2A1180" />
<rect x="89" y="161" width="1" height="1" fill="#2A1180" />
<rect x="105" y="161" width="1" height="1" fill="#44199C" />
<rect x="164" y="161" width="1" height="1" fill="#44199C" />
<rect x="248" y="161" width="1" height="1" fill="#44199C" />
<rect x="258" y="161" width="1" height="1" fill="#EACBF2" />
<rect x="153" y="162" width="1" height="1" fill="#44199C" />
<rect x="71" y="163" width="1" height="1" fill="#2A1180" />
<rect x="278" y="163" width="1" height="1" fill="#44199C" />
<rect x="3" y="164" width="1" height="1" fill="#781FB8" />
<rect x="34" y="164" width="1" height="1" fill="#2A1180" />
<rect x="126" y="164" width="1" height="1" fill="#EACBF2" />
<rect x="212" y="164" width="1" height="1" fill="#C67FDB" />
<rect x="309" y="164" width="1" height="1" fill="#781FB8" />
<rect x="58" y="165" width="1" height="1" fill="#44199C" />
<rect x="76" y="165" width="1" height="1" fill="#44199C" />
<rect x="151" y="165" width="1" height="1" fill="#781FB8" />
<rect x="222" y="165" width="1" height="1" fill="#2A1180" />
<rect x="244" y="165" width="1" height="1" fill="#2A1180" />
<rect x="193" y="166" width="1" height="1" fill="#EACBF2" />
<rect x="255" y="166" width="1" height="1" fill="#44199C" />
<rect x="261" y="166" width="1" height="1" fill="#44199C" />
<rect x="10" y="167" width="1" height="1" fill="#EACBF2" />
<rect x="39" y="167" width="1" height="1" fill="#EACBF2" />
<rect x="133" y="167" width="1" height="1" fill="#44199C" />
<rect x="227" y="167" width="1" height="1" fill="#44199C" />
<rect x="234" y="167" width="1" height="1" fill="#2A1180" />
<rect x="250" y="167" width="1" height="1" fill="#C67FDB" />
<rect x="29" y="168" width="1" height="1" fill="#781FB8" />
<rect x="161" y="168" width="1" height="1" fill="#C67FDB" />
<rect x="202" y="168" width="1" height="1" fill="#44199C" />
<rect x="208" y="168" width="1" height="1" fill="#2A1180" />
<rect x="266" y="168" width="1" height="1" fill="#44199C" />
<rect x="90" y="169" width="1" height="1" fill="#781FB8" />
<rect x="129" y="169" width="1" height="1" fill="#44199C" />
<rect x="177" y="169" width="1" height="1" fill="#C67FDB" />
<rect x="271" y="169" width="1" height="1" fill="#2A1180" />
<rect x="297" y="169" width="1" height="1" fill="#781FB8" />
<rect x="80" y="170" width="1" height="1" fill="#EACBF2" />
<rect x="98" y="170" width="1" height="1" fill="#2A1180" />
<rect x="102" y="170" width="1" height="1" fill="#C67FDB" />
<rect x="153" y="170" width="1" height="1" fill="#2A1180" />
<rect x="288" y="170" width="1" height="1" fill="#EACBF2" />
<rect x="1" y="171" width="1" height="1" fill="#781FB8" />
<rect x="169" y="171" width="1" height="1" fill="#2A1180" />
<rect x="200" y="171" width="1" height="1" fill="#44199C" />
<rect x="239" y="171" width="1" height="1" fill="#781FB8" />
<rect x="289" y="172" width="1" height="1" fill="#2A1180" />
<rect x="10" y="173" width="1" height="1" fill="#44199C" />
<rect x="15" y="173" width="1" height="1" fill="#781FB8" />
<rect x="110" y="173" width="1" height="1" fill="#2A1180" />
<rect x="243" y="173" width="1" height="1" fill="#EACBF2" />
<rect x="245" y="173" width="1" height="1" fill="#44199C" />
<rect x="255" y="173" width="1" height="1" fill="#44199C" />
<rect x="36" y="174" width="1" height="1" fill="#44199C" />
<rect x="54" y="174" width="1" height="1" fill="#781FB8" />
<rect x="93" y="174" width="1" height="1" fill="#44199C" />
<rect x="158" y="174" width="1" height="1" fill="#44199C" />
<rect x="303" y="174" width="1" height="1" fill="#44199C" />
<rect x="312" y="174" width="1" height="1" fill="#44199C" />
<rect x="66" y="175" width="1" height="1" fill="#C67FDB" />
<rect x="127" y="175" width="1" height="1" fill="#C67FDB" />
<rect x="239" y="175" width="1" height="1" fill="#2A1180" />
<rect x="21" y="176" width="1" height="1" fill="#C67FDB" />
<rect x="87" y="176" width="1" height="1" fill="#EACBF2" />
<rect x="195" y="176" width="1" height="1" fill="#44199C" />
<rect x="276" y="176" width="1" height="1" fill="#EACBF2" />
<rect x="26" y="177" width="1" height="1" fill="#2A1180" />
<rect x="216" y="177" width="1" height="1" fill="#44199C" />
<rect x="236" y="177" width="1" height="1" fill="#EACBF2" />
<rect x="248" y="177" width="1" height="1" fill="#C67FDB" />
<rect x="74" y="178" width="1" height="1" fill="#2A1180" />
<rect x="173" y="178" width="1" height="1" fill="#44199C" />
<rect x="16" y="179" width="1" height="1" fill="#2A1180" />
<rect x="136" y="179" width="1" height="1" fill="#2A1180" />
<rect x="194" y="179" width="1" height="1" fill="#44199C" />
<rect x="283" y="179" width="1" height="1" fill="#44199C" />
</svg>